<?xml version="1.0" standalone="no"?>
<!DOCTYPE svg PUBLIC "-//W3C//DTD SVG 20010904//EN"
 "http://www.w3.org/TR/2001/REC-SVG-20010904/DTD/svg10.dtd">
<svg version="1.0" xmlns="http://www.w3.org/2000/svg"
 width="402.000000pt" height="125.000000pt" viewBox="0 0 402.000000 125.000000"
 preserveAspectRatio="xMidYMid meet">

<g transform="translate(0.000000,125.000000) scale(0.100000,-0.100000)"
fill="#000000" stroke="none">
<path d="M167 552 c-15 -16 -17 -47 -17 -225 0 -194 1 -208 20 -227 20 -20 33
-20 845 -20 812 0 825 0 845 20 19 19 20 33 20 223 0 167 -3 206 -16 225 l-15
22 -833 0 c-794 0 -834 -1 -849 -18z m553 -72 c-33 -8 -34 -44 -2 -48 12 -2
22 2 22 8 0 6 -4 8 -10 5 -5 -3 -10 -1 -10 4 0 6 9 11 20 11 24 0 26 -13 4
-35 -21 -20 -43 -16 -61 12 -13 19 -12 24 6 42 13 13 27 18 38 14 15 -6 14 -8
-7 -13z m381 -12 c15 -27 -19 -63 -49 -54 -32 11 -39 46 -13 67 25 20 47 16
62 -13z m-670 -54 c77 -42 138 -82 136 -88 -2 -6 -20 -20 -40 -31 l-36 -20
-25 24 -25 24 -77 -72 c-43 -39 -81 -71 -86 -71 -10 0 -11 294 -1 303 10 10 5
13 154 -69z m442 69 c-7 -2 -13 -20 -13 -39 0 -21 -4 -33 -10 -29 -5 3 -10 19
-10 36 0 26 -3 29 -30 29 -31 0 -43 -19 -12 -21 16 -1 16 -2 0 -6 -22 -5 -24
-23 -3 -23 8 0 15 -4 15 -10 0 -5 -9 -10 -20 -10 -17 0 -20 7 -20 40 l0 40 58
-1 c31 0 51 -3 45 -6z m57 -34 c0 -24 -4 -38 -10 -34 -5 3 -10 22 -10 41 0 19
5 34 10 34 6 0 10 -18 10 -41z m53 34 c-7 -2 -14 -21 -15 -41 l-1 -37 -4 35
c-3 19 -10 38 -16 42 -7 4 1 7 18 7 17 0 24 -3 18 -6z m166 -15 l15 -23 7 25
c5 20 7 15 8 -20 l0 -45 -24 29 -23 29 -5 -29 c-3 -22 -4 -19 -6 14 -1 47 7
53 28 20z m-365 -108 c38 -14 32 -30 -9 -23 -26 4 -41 1 -55 -12 -48 -43 -2
-120 58 -99 37 13 42 44 8 44 -14 0 -26 5 -26 10 0 6 18 10 40 10 32 0 40 -4
40 -19 0 -10 -9 -30 -21 -45 -39 -49 -128 -26 -144 37 -12 45 27 95 82 107 1
0 13 -4 27 -10z m446 -80 c0 -47 -4 -80 -10 -80 -6 0 -10 33 -10 80 0 47 4 80
10 80 6 0 10 -33 10 -80z m262 63 c10 -9 18 -23 18 -31 0 -26 -31 -52 -62 -52
-24 0 -28 -4 -28 -30 0 -16 -4 -30 -10 -30 -6 0 -10 33 -10 80 l0 80 37 0 c20
0 45 -7 55 -17z m58 -63 c0 -64 -3 -80 -15 -80 -12 0 -15 16 -15 80 0 64 3 80
15 80 12 0 15 -16 15 -80z m-602 2 c26 -34 -1 -82 -48 -82 -33 0 -50 17 -50
51 0 52 65 72 98 31z m120 0 c26 -34 -1 -82 -48 -82 -33 0 -50 17 -50 51 0 52
65 72 98 31z m108 18 c11 0 14 -15 14 -63 0 -67 -10 -87 -45 -87 -29 0 -62 25
-46 34 6 4 18 2 26 -4 18 -15 45 -6 45 13 0 10 -8 13 -25 9 -33 -6 -55 14 -55
49 0 30 35 63 58 54 8 -3 20 -5 28 -5z m145 0 c28 -15 23 -36 -11 -50 -40 -16
-39 -34 1 -26 22 4 29 2 27 -7 -3 -6 -19 -13 -36 -15 -24 -2 -34 2 -47 21 -19
29 -7 73 22 80 10 3 19 5 21 6 2 0 12 -4 23 -9z m319 -10 c12 -12 20 -33 20
-54 0 -32 -1 -34 -39 -34 -49 -1 -71 20 -53 49 7 11 10 25 6 31 -7 11 13 28
34 28 6 0 21 -9 32 -20z m60 -22 l11 -33 14 33 c13 29 35 44 35 23 0 -18 -61
-141 -70 -141 -13 0 -13 16 0 41 8 14 6 28 -10 58 -24 48 -24 51 -6 51 8 0 19
-15 26 -32z"/>
<path d="M1047 474 c-4 -4 -7 -16 -7 -26 0 -14 6 -19 23 -16 14 2 22 10 22 23
0 20 -25 32 -38 19z"/>
<path d="M1427 334 c-10 -11 -9 -42 3 -49 20 -12 51 6 48 28 -3 22 -36 35 -51
21z"/>
<path d="M874 265 c-4 -9 0 -23 9 -32 21 -21 49 -9 45 19 -4 28 -45 38 -54 13z"/>
<path d="M994 265 c-4 -9 0 -23 9 -32 21 -21 49 -9 45 19 -4 28 -45 38 -54 13z"/>
<path d="M1114 265 c-4 -9 0 -23 9 -32 21 -21 49 -9 45 19 -4 28 -45 38 -54
13z"/>
<path d="M1275 270 c-3 -5 1 -10 9 -10 8 0 18 5 21 10 3 6 -1 10 -9 10 -8 0
-18 -4 -21 -10z"/>
<path d="M1598 273 c6 -2 18 -2 25 0 6 3 1 5 -13 5 -14 0 -19 -2 -12 -5z"/>
<path d="M1590 234 c0 -9 7 -14 17 -12 25 5 28 28 4 28 -12 0 -21 -6 -21 -16z"/>
<path d="M2202 558 c-9 -9 -12 -74 -12 -230 0 -205 1 -218 19 -228 13 -7 289
-10 824 -10 766 0 805 1 820 18 25 27 25 422 1 446 -14 14 -103 16 -828 16
-618 0 -815 -3 -824 -12z m328 -75 c0 -20 -28 -53 -47 -53 -17 0 -17 20 3 48
18 26 44 29 44 5z m254 1 c9 -8 16 -22 16 -29 0 -20 -28 -45 -51 -45 -16 0
-19 7 -19 45 0 38 3 45 19 45 11 0 27 -7 35 -16z m283 -51 c-2 -16 -4 -5 -4
22 0 28 2 40 4 28 2 -13 2 -35 0 -50z m223 24 c0 -35 -3 -43 -19 -44 -24 -2
-45 22 -37 42 3 8 15 15 26 15 11 0 20 7 20 15 0 8 2 15 5 15 3 0 5 -19 5 -43z
m310 28 c0 -8 7 -15 15 -15 11 0 15 -10 14 -32 -2 -31 -2 -31 -6 -5 -5 31 -23
37 -23 8 0 -11 -4 -23 -10 -26 -6 -4 -10 12 -10 39 0 25 5 46 10 46 6 0 10 -7
10 -15z m-46 -39 c1 -20 -2 -36 -6 -36 -11 0 -21 48 -14 66 9 24 18 11 20 -30z
m-689 -6 c0 -18 -6 -26 -23 -28 -24 -4 -38 18 -28 44 3 9 15 14 28 12 17 -2
23 -10 23 -28z m35 13 c0 -15 1 -15 14 2 13 18 13 18 24 -1 10 -17 11 -17 12
-1 0 9 4 17 9 17 6 0 6 -12 0 -30 -13 -36 -17 -37 -29 -7 -6 16 -9 17 -9 5 -1
-30 -19 -29 -30 2 -6 18 -6 30 0 30 5 0 9 -8 9 -17z m138 -15 c2 -16 -1 -28
-7 -28 -6 0 -11 11 -11 25 0 14 -4 25 -10 25 -5 0 -10 -12 -10 -26 0 -14 -4
-23 -10 -19 -5 3 -10 17 -10 31 0 22 4 25 28 22 21 -2 28 -9 30 -30z m110 4
c4 -28 -24 -40 -45 -19 -21 21 -9 49 19 45 15 -2 24 -11 26 -26z m67 8 c8 -26
-1 -40 -26 -40 -25 0 -27 40 -1 41 14 0 14 2 -3 9 -19 8 -19 9 2 9 13 1 24 -7
28 -19z m185 -5 c0 -31 -26 -43 -46 -23 -20 20 -7 48 22 48 19 0 24 -5 24 -25z
m75 4 c4 -12 2 -26 -4 -32 -8 -8 -11 -4 -11 16 0 15 -4 27 -10 27 -5 0 -10
-11 -10 -25 0 -14 -4 -25 -10 -25 -5 0 -10 14 -10 30 0 25 4 30 24 30 16 0 27
-7 31 -21z m229 6 c4 -10 -1 -15 -14 -15 -25 0 -26 -17 -2 -23 14 -4 14 -5 1
-6 -22 -1 -43 25 -35 44 7 19 42 19 50 0z m-1261 -34 c16 -6 37 -6 60 1 30 9
40 8 62 -6 24 -16 25 -18 10 -39 -21 -30 -19 -67 6 -93 23 -25 18 -43 -24 -82
-20 -19 -28 -21 -52 -12 -20 8 -37 8 -58 0 -26 -9 -34 -7 -53 11 -32 30 -54
81 -54 126 0 53 23 84 77 102 1 1 13 -3 26 -8z m821 -67 c26 -10 18 -24 -13
-24 -17 0 -32 -4 -36 -9 -7 -12 18 -38 44 -46 41 -13 37 -70 -6 -86 -29 -11
-75 -1 -70 14 2 6 19 11 37 11 48 1 51 27 5 49 -28 14 -35 22 -35 46 0 40 34
60 74 45z m-437 -78 c27 -82 27 -86 9 -86 -8 0 -17 11 -20 25 -5 18 -13 25
-31 25 -18 0 -28 -8 -35 -25 -5 -14 -16 -25 -24 -25 -11 0 -9 16 12 80 22 67
30 80 46 78 14 -2 25 -22 43 -72z m539 34 c8 0 14 -4 14 -10 0 -5 -7 -10 -15
-10 -22 0 -20 -69 3 -86 16 -12 16 -13 -1 -19 -28 -11 -47 13 -47 60 0 26 -5
45 -12 48 -9 3 -5 12 12 27 21 18 26 19 28 6 2 -9 10 -16 18 -16z m-466 -12
c0 -9 3 -9 12 0 31 31 78 0 78 -53 0 -40 -31 -68 -67 -59 -20 5 -23 2 -23 -20
0 -14 -4 -26 -10 -26 -6 0 -10 35 -10 85 0 50 4 85 10 85 6 0 10 -5 10 -12z
m220 -8 c5 -8 10 -30 10 -47 0 -42 -37 -70 -69 -53 -19 10 -21 8 -21 -20 0
-17 -5 -30 -12 -30 -10 0 -13 21 -11 78 1 42 2 80 2 83 2 14 92 3 101 -11z
m372 3 c40 -36 13 -106 -42 -106 -54 0 -78 53 -44 101 18 26 60 29 86 5z m108
6 c0 -4 -9 -13 -20 -19 -15 -8 -20 -21 -20 -50 0 -29 -4 -40 -15 -40 -12 0
-15 13 -15 59 l0 59 35 0 c19 0 35 -4 35 -9z m104 -11 c26 -37 20 -48 -25 -48
-49 0 -50 -23 -1 -28 36 -4 42 -17 11 -25 -28 -7 -65 7 -73 28 -26 69 48 131
88 73z"/>
<path d="M2740 451 c0 -32 6 -37 28 -22 19 11 11 45 -11 49 -13 3 -17 -3 -17
-27z"/>
<path d="M3252 446 c1 -10 8 -17 13 -17 15 1 12 24 -3 29 -9 3 -13 -2 -10 -12z"/>
<path d="M2830 440 c0 -11 5 -20 10 -20 6 0 10 9 10 20 0 11 -4 20 -10 20 -5
0 -10 -9 -10 -20z"/>
<path d="M3112 446 c1 -10 8 -17 13 -17 15 1 12 24 -3 29 -9 3 -13 -2 -10 -12z"/>
<path d="M3180 429 c0 -5 5 -7 10 -4 6 3 10 8 10 11 0 2 -4 4 -10 4 -5 0 -10
-5 -10 -11z"/>
<path d="M3362 444 c4 -21 22 -23 26 -1 2 10 -3 17 -13 17 -10 0 -15 -6 -13
-16z"/>
<path d="M2772 291 c-10 -28 -9 -31 9 -31 16 0 18 5 13 28 -9 37 -10 37 -22 3z"/>
<path d="M2910 270 c-16 -30 -3 -62 23 -58 18 2 22 10 22 38 0 41 -27 53 -45
20z"/>
<path d="M3050 276 c-7 -10 -10 -26 -6 -42 5 -19 12 -25 29 -22 18 2 22 9 22
38 0 39 -23 52 -45 26z"/>
<path d="M3424 265 c-8 -34 1 -55 26 -55 25 0 34 21 26 55 -9 34 -43 34 -52 0z"/>
<path d="M3647 284 c-14 -14 -6 -24 19 -24 16 0 24 5 22 13 -5 14 -31 21 -41
11z"/>
</g>
</svg>
